{
  "header": {
    "keySignatures": [
      {
        "key": "F",
        "scale": "major",
        "ticks": 0
      }
    ],
    "meta": [],
    "name": "",
    "ppq": 1024,
    "tempos": [
      {
        "bpm": 139.9998133335822,
        "ticks": 0
      },
      {
        "bpm": 139.9998133335822,
        "ticks": 0
      },
      {
        "bpm": 139.97988955586715,
        "ticks": 0
      },
      {
        "bpm": 139.97988955586715,
        "ticks": 6144
      },
      {
        "bpm": 138.98411874803105,
        "ticks": 6400
      },
      {
        "bpm": 138.45653272535532,
        "ticks": 6656
      },
      {
        "bpm": 137.46050874134286,
        "ticks": 6912
      },
      {
        "bpm": 136.99193117525377,
        "ticks": 7168
      },
      {
        "bpm": 135.99613770968904,
        "ticks": 7424
      },
      {
        "bpm": 135.46861982312313,
        "ticks": 7680
      },
      {
        "bpm": 134.47246452168145,
        "ticks": 7936
      },
      {
        "bpm": 139.97988955586715,
        "ticks": 8192
      },
      {
        "bpm": 139.97988955586715,
        "ticks": 8448
      },
      {
        "bpm": 139.97988955586715,
        "ticks": 14336
      },
      {
        "bpm": 139.45250944790752,
        "ticks": 14592
      },
      {
        "bpm": 138.98411874803105,
        "ticks": 14848
      },
      {
        "bpm": 138.45653272535532,
        "ticks": 15104
      },
      {
        "bpm": 138.45653272535532,
        "ticks": 15360
      },
      {
        "bpm": 137.98813302056024,
        "ticks": 15616
      },
      {
        "bpm": 137.46050874134286,
        "ticks": 15872
      },
      {
        "bpm": 136.99193117525377,
        "ticks": 16128
      },
      {
        "bpm": 139.97988955586715,
        "ticks": 16384
      },
      {
        "bpm": 139.97988955586715,
        "ticks": 22528
      },
      {
        "bpm": 139.45250944790752,
        "ticks": 22784
      },
      {
        "bpm": 138.98411874803105,
        "ticks": 23040
      },
      {
        "bpm": 138.45653272535532,
        "ticks": 23296
      },
      {
        "bpm": 138.45653272535532,
        "ticks": 23552
      },
      {
        "bpm": 137.98813302056024,
        "ticks": 23808
      },
      {
        "bpm": 137.46050874134286,
        "ticks": 24064
      },
      {
        "bpm": 136.99193117525377,
        "ticks": 24320
      },
      {
        "bpm": 139.97988955586715,
        "ticks": 24576
      },
      {
        "bpm": 139.97988955586715,
        "ticks": 40960
      },
      {
        "bpm": 139.97988955586715,
        "ticks": 41216
      },
      {
        "bpm": 139.97988955586715,
        "ticks": 47104
      },
      {
        "bpm": 139.45250944790752,
        "ticks": 47360
      },
      {
        "bpm": 138.98411874803105,
        "ticks": 47616
      },
      {
        "bpm": 138.45653272535532,
        "ticks": 47872
      },
      {
        "bpm": 138.45653272535532,
        "ticks": 48128
      },
      {
        "bpm": 137.98813302056024,
        "ticks": 48384
      },
      {
        "bpm": 137.46050874134286,
        "ticks": 48640
      },
      {
        "bpm": 136.99193117525377,
        "ticks": 48896
      },
      {
        "bpm": 139.97988955586715,
        "ticks": 49152
      },
      {
        "bpm": 139.97988955586715,
        "ticks": 55296
      },
      {
        "bpm": 139.45250944790752,
        "ticks": 55552
      },
      {
        "bpm": 138.98411874803105,
        "ticks": 55808
      },
      {
        "bpm": 138.45653272535532,
        "ticks": 56064
      },
      {
        "bpm": 138.45653272535532,
        "ticks": 56320
      },
      {
        "bpm": 137.98813302056024,
        "ticks": 56576
      },
      {
        "bpm": 137.46050874134286,
        "ticks": 56832
      },
      {
        "bpm": 136.99193117525377,
        "ticks": 57088
      },
      {
        "bpm": 139.97988955586715,
        "ticks": 57344
      }
    ],
    "timeSignatures": [
      {
        "ticks": 0,
        "timeSignature": [
          4,
          4
        ],
        "measures": 0
      }
    ]
  },
  "tracks": [
    {
      "channel": 0,
      "controlChanges": {
        "6": [
          {
            "number": 6,
            "ticks": 4,
            "time": 0.00167434765625,
            "value": 0.09448818897637795
          },
          {
            "number": 6,
            "ticks": 4,
            "time": 0.00167434765625,
            "value": 0.09448818897637795
          }
        ],
        "7": [
          {
            "number": 7,
            "ticks": 0,
            "time": 0,
            "value": 0.7952755905511811
          },
          {
            "number": 7,
            "ticks": 0,
            "time": 0,
            "value": 0.8031496062992126
          },
          {
            "number": 7,
            "ticks": 0,
            "time": 0,
            "value": 0.8661417322834646
          },
          {
            "number": 7,
            "ticks": 10,
            "time": 0.0041858691406249995,
            "value": 0.8031496062992126
          },
          {
            "number": 7,
            "ticks": 10,
            "time": 0.0041858691406249995,
            "value": 0.8661417322834646
          }
        ],
        "10": [
          {
            "number": 10,
            "ticks": 0,
            "time": 0,
            "value": 0.5039370078740157
          }
        ],
        "38": [
          {
            "number": 38,
            "ticks": 5,
            "time": 0.0020929345703124998,
            "value": 0
          },
          {
            "number": 38,
            "ticks": 5,
            "time": 0.0020929345703124998,
            "value": 0
          }
        ],
        "100": [
          {
            "number": 100,
            "ticks": 3,
            "time": 0.0012557607421875,
            "value": 0
          },
          {
            "number": 100,
            "ticks": 3,
            "time": 0.0012557607421875,
            "value": 0
          }
        ],
        "101": [
          {
            "number": 101,
            "ticks": 3,
            "time": 0.0012557607421875,
            "value": 0
          },
          {
            "number": 101,
            "ticks": 3,
            "time": 0.0012557607421875,
            "value": 0
          }
        ]
      },
      "pitchBends": [],
      "instrument": {
        "family": "piano",
        "number": 0,
        "name": "acoustic grand piano"
      },
      "name": "Piano",
      "notes": [
        {
          "duration": 0.1544585712890625,
          "durationTicks": 369,
          "midi": 65,
          "name": "F4",
          "ticks": 10,
          "time": 0.0041858691406249995,
          "velocity": 0.6771653543307087
        },
        {
          "duration": 0.1544585712890625,
          "durationTicks": 369,
          "midi": 72,
          "name": "C5",
          "ticks": 10,
          "time": 0.0041858691406249995,
          "velocity": 0.7559055118110236
        },
        {
          "duration": 0.1460868330078125,
          "durationTicks": 349,
          "midi": 55,
          "name": "G3",
          "ticks": 10,
          "time": 0.0041858691406249995,
          "velocity": 0.8346456692913385
        },
        {
          "duration": 0.1385522685546875,
          "durationTicks": 331,
          "midi": 65,
          "name": "F4",
          "ticks": 380,
          "time": 0.15906302734375,
          "velocity": 0.6377952755905512
        },
        {
          "duration": 0.1385522685546875,
          "durationTicks": 331,
          "midi": 72,
          "name": "C5",
          "ticks": 380,
          "time": 0.15906302734375,
          "velocity": 0.7165354330708661
        },
        {
          "duration": 0.1301805302734375,
          "durationTicks": 311,
          "midi": 57,
          "name": "A3",
          "ticks": 380,
          "time": 0.15906302734375,
          "velocity": 0.7952755905511811
        },
        {
          "duration": 0.1511098759765625,
          "durationTicks": 361,
          "midi": 65,
          "name": "F4",
          "ticks": 712,
          "time": 0.2980338828125,
          "velocity": 0.7244094488188977
        },
        {
          "duration": 0.14273813769531252,
          "durationTicks": 341,
          "midi": 72,
          "name": "C5",
          "ticks": 712,
          "time": 0.2980338828125,
          "velocity": 0.6850393700787402
        },
        {
          "duration": 0.13436639941406248,
          "durationTicks": 321,
          "midi": 59,
          "name": "B3",
          "ticks": 712,
          "time": 0.2980338828125,
          "velocity": 0.7952755905511811
        },
        {
          "duration": 0.424447130859375,
          "durationTicks": 1014,
          "midi": 64,
          "name": "E4",
          "ticks": 1054,
          "time": 0.441190607421875,
          "velocity": 0.7401574803149606
        },
        {
          "duration": 0.424447130859375,
          "durationTicks": 1014,
          "midi": 72,
          "name": "C5",
          "ticks": 1054,
          "time": 0.441190607421875,
          "velocity": 0.8503937007874016
        },
        {
          "duration": 0.424447130859375,
          "durationTicks": 1014,
          "midi": 60,
          "name": "C4",
          "ticks": 1054,
          "time": 0.441190607421875,
          "velocity": 0.8031496062992126
        },
        {
          "duration": 0.424447130859375,
          "durationTicks": 1014,
          "midi": 60,
          "name": "C4",
          "ticks": 2069,
          "time": 0.8660563251953125,
          "velocity": 0.7559055118110236
        },
        {
          "duration": 0.424447130859375,
          "durationTicks": 1014,
          "midi": 63,
          "name": "D#4",
          "ticks": 2069,
          "time": 0.8660563251953125,
          "velocity": 0.7559055118110236
        },
        {
          "duration": 0.424447130859375,
          "durationTicks": 1014,
          "midi": 68,
          "name": "G#4",
          "ticks": 2069,
          "time": 0.8660563251953125,
          "velocity": 0.8661417322834646
        },
        {
          "duration": 0.13604074707031255,
          "durationTicks": 325,
          "midi": 56,
          "name": "G#3",
          "ticks": 2069,
          "time": 0.8660563251953125,
          "velocity": 0.8188976377952756
        },
        {
          "duration": 0.1289247695312501,
          "durationTicks": 308,
          "midi": 55,
          "name": "G3",
          "ticks": 2415,
          "time": 1.0108873974609374,
          "velocity": 0.7952755905511811
        },
        {
          "duration": 0.1335292255859375,
          "durationTicks": 319,
          "midi": 54,
          "name": "F#3",
          "ticks": 2744,
          "time": 1.1486024921875,
          "velocity": 0.7952755905511811
        },
        {
          "duration": 0.42319137011718744,
          "durationTicks": 1011,
          "midi": 62,
          "name": "D4",
          "ticks": 3084,
          "time": 1.29092204296875,
          "velocity": 0.7401574803149606
        },
        {
          "duration": 0.42319137011718744,
          "durationTicks": 1011,
          "midi": 65,
          "name": "F4",
          "ticks": 3084,
          "time": 1.29092204296875,
          "velocity": 0.7401574803149606
        },
        {
          "duration": 0.42319137011718744,
          "durationTicks": 1011,
          "midi": 70,
          "name": "A#4",
          "ticks": 3084,
          "time": 1.29092204296875,
          "velocity": 0.8503937007874016
        },
        {
          "duration": 0.42319137011718744,
          "durationTicks": 1011,
          "midi": 53,
          "name": "F3",
          "ticks": 3084,
          "time": 1.29092204296875,
          "velocity": 0.8031496062992126
        },
        {
          "duration": 0.1485983544921876,
          "durationTicks": 355,
          "midi": 64,
          "name": "E4",
          "ticks": 4100,
          "time": 1.71620634765625,
          "velocity": 0.7716535433070866
        },
        {
          "duration": 0.15697009277343743,
          "durationTicks": 375,
          "midi": 72,
          "name": "C5",
          "ticks": 4100,
          "time": 1.71620634765625,
          "velocity": 0.8818897637795275
        },
        {
          "duration": 0.1485983544921876,
          "durationTicks": 355,
          "midi": 55,
          "name": "G3",
          "ticks": 4100,
          "time": 1.71620634765625,
          "velocity": 0.8346456692913385
        },
        {
          "duration": 0.1343663994140627,
          "durationTicks": 321,
          "midi": 62,
          "name": "D4",
          "ticks": 4808,
          "time": 2.0125658828125,
          "velocity": 0.7322834645669292
        },
        {
          "duration": 0.14273813769531252,
          "durationTicks": 341,
          "midi": 70,
          "name": "A#4",
          "ticks": 4808,
          "time": 2.0125658828125,
          "velocity": 0.84251968503937
        },
        {
          "duration": 0.1343663994140627,
          "durationTicks": 321,
          "midi": 53,
          "name": "F3",
          "ticks": 4808,
          "time": 2.0125658828125,
          "velocity": 0.7952755905511811
        },
        {
          "duration": 1.2902499121093745,
          "durationTicks": 3041,
          "midi": 64,
          "name": "E4",
          "ticks": 5150,
          "time": 2.155722607421875,
          "velocity": 0.7322834645669292
        },
        {
          "duration": 1.2902499121093745,
          "durationTicks": 3041,
          "midi": 72,
          "name": "C5",
          "ticks": 5150,
          "time": 2.155722607421875,
          "velocity": 0.84251968503937
        },
        {
          "duration": 1.2902499121093745,
          "durationTicks": 3041,
          "midi": 55,
          "name": "G3",
          "ticks": 5150,
          "time": 2.155722607421875,
          "velocity": 0.7952755905511811
        },
        {
          "duration": 0.4390976728515623,
          "durationTicks": 1049,
          "midi": 67,
          "name": "G4",
          "ticks": 8196,
          "time": 3.4480825976562492,
          "velocity": 0.7322834645669292
        },
        {
          "duration": 0.23943171484375014,
          "durationTicks": 572,
          "midi": 48,
          "name": "C3",
          "ticks": 8196,
          "time": 3.4480825976562492,
          "velocity": 0.6377952755905512
        },
        {
          "duration": 0.225199759765625,
          "durationTicks": 538,
          "midi": 55,
          "name": "G3",
          "ticks": 8738,
          "time": 3.674956705078124,
          "velocity": 0.5984251968503937
        },
        {
          "duration": 0.42444713085937513,
          "durationTicks": 1014,
          "midi": 65,
          "name": "F4",
          "ticks": 9246,
          "time": 3.887598857421874,
          "velocity": 0.7007874015748031
        },
        {
          "duration": 0.22394399902343798,
          "durationTicks": 535,
          "midi": 48,
          "name": "C3",
          "ticks": 9246,
          "time": 3.887598857421874,
          "velocity": 0.6062992125984252
        },
        {
          "duration": 0.22603693359375043,
          "durationTicks": 540,
          "midi": 55,
          "name": "G3",
          "ticks": 9751,
          "time": 4.098985249023436,
          "velocity": 0.5984251968503937
        },
        {
          "duration": 0.4244471308593747,
          "durationTicks": 1014,
          "midi": 67,
          "name": "G4",
          "ticks": 10261,
          "time": 4.312464575195312,
          "velocity": 0.7165354330708661
        },
        {
          "duration": 0.22603693359374954,
          "durationTicks": 540,
          "midi": 48,
          "name": "C3",
          "ticks": 10261,
          "time": 4.312464575195312,
          "velocity": 0.6220472440944882
        },
        {
          "duration": 0.22394399902343753,
          "durationTicks": 535,
          "midi": 55,
          "name": "G3",
          "ticks": 10771,
          "time": 4.525943901367187,
          "velocity": 0.5984251968503937
        },
        {
          "duration": 0.19841019726562514,
          "durationTicks": 474,
          "midi": 65,
          "name": "F4",
          "ticks": 11276,
          "time": 4.737330292968749,
          "velocity": 0.7007874015748031
        },
        {
          "duration": 0.22394399902343753,
          "durationTicks": 535,
          "midi": 48,
          "name": "C3",
          "ticks": 11276,
          "time": 4.737330292968749,
          "velocity": 0.6062992125984252
        },
        {
          "duration": 0.44035343359375023,
          "durationTicks": 1052,
          "midi": 70,
          "name": "A#4",
          "ticks": 11781,
          "time": 4.948716684570312,
          "velocity": 0.6929133858267716
        },
        {
          "duration": 0.22478117285156252,
          "durationTicks": 537,
          "midi": 55,
          "name": "G3",
          "ticks": 11781,
          "time": 4.948716684570312,
          "velocity": 0.5984251968503937
        },
        {
          "duration": 0.23943171484375014,
          "durationTicks": 572,
          "midi": 46,
          "name": "A#2",
          "ticks": 12292,
          "time": 5.162614597656249,
          "velocity": 0.6377952755905512
        },
        {
          "duration": 0.19966595800781306,
          "durationTicks": 477,
          "midi": 70,
          "name": "A#4",
          "ticks": 12834,
          "time": 5.389488705078124,
          "velocity": 0.6929133858267716
        },
        {
          "duration": 0.22519975976562456,
          "durationTicks": 538,
          "midi": 53,
          "name": "F3",
          "ticks": 12834,
          "time": 5.389488705078124,
          "velocity": 0.5984251968503937
        },
        {
          "duration": 0.4244471308593738,
          "durationTicks": 1014,
          "midi": 69,
          "name": "A4",
          "ticks": 13342,
          "time": 5.602130857421875,
          "velocity": 0.7007874015748031
        },
        {
          "duration": 0.22394399902343665,
          "durationTicks": 535,
          "midi": 46,
          "name": "A#2",
          "ticks": 13342,
          "time": 5.602130857421875,
          "velocity": 0.6062992125984252
        },
        {
          "duration": 0.22603693359374954,
          "durationTicks": 540,
          "midi": 53,
          "name": "F3",
          "ticks": 13847,
          "time": 5.813517249023437,
          "velocity": 0.5984251968503937
        },
        {
          "duration": 0.20088938574218762,
          "durationTicks": 479,
          "midi": 70,
          "name": "A#4",
          "ticks": 14357,
          "time": 6.026996575195311,
          "velocity": 0.7165354330708661
        },
        {
          "duration": 0.22658913574218786,
          "durationTicks": 540,
          "midi": 46,
          "name": "A#2",
          "ticks": 14357,
          "time": 6.026996575195311,
          "velocity": 0.6220472440944882
        },
        {
          "duration": 0.42700040234374903,
          "durationTicks": 1009,
          "midi": 69,
          "name": "A4",
          "ticks": 14867,
          "time": 6.2409381328124995,
          "velocity": 0.6929133858267716
        },
        {
          "duration": 0.22602719726562448,
          "durationTicks": 535,
          "midi": 53,
          "name": "F3",
          "ticks": 14867,
          "time": 6.2409381328124995,
          "velocity": 0.5984251968503937
        },
        {
          "duration": 0.22688299902343712,
          "durationTicks": 535,
          "midi": 46,
          "name": "A#2",
          "ticks": 15372,
          "time": 6.454269558593749,
          "velocity": 0.6062992125984252
        },
        {
          "duration": 0.20322723535156229,
          "durationTicks": 476,
          "midi": 69,
          "name": "A4",
          "ticks": 15877,
          "time": 6.668364793945312,
          "velocity": 0.6929133858267716
        },
        {
          "duration": 0.2290440634765627,
          "durationTicks": 537,
          "midi": 53,
          "name": "F3",
          "ticks": 15877,
          "time": 6.668364793945312,
          "velocity": 0.5984251968503937
        },
        {
          "duration": 0.4390976728515623,
          "durationTicks": 1049,
          "midi": 67,
          "name": "G4",
          "ticks": 16388,
          "time": 6.88652559765625,
          "velocity": 0.7322834645669292
        },
        {
          "duration": 0.23943171484375014,
          "durationTicks": 572,
          "midi": 48,
          "name": "C3",
          "ticks": 16388,
          "time": 6.88652559765625,
          "velocity": 0.6377952755905512
        },
        {
          "duration": 0.22519975976562456,
          "durationTicks": 538,
          "midi": 55,
          "name": "G3",
          "ticks": 16930,
          "time": 7.113399705078125,
          "velocity": 0.5984251968503937
        },
        {
          "duration": 0.4244471308593747,
          "durationTicks": 1014,
          "midi": 65,
          "name": "F4",
          "ticks": 17438,
          "time": 7.326041857421875,
          "velocity": 0.7007874015748031
        },
        {
          "duration": 0.22394399902343753,
          "durationTicks": 535,
          "midi": 48,
          "name": "C3",
          "ticks": 17438,
          "time": 7.326041857421875,
          "velocity": 0.6062992125984252
        },
        {
          "duration": 0.22603693359375043,
          "durationTicks": 540,
          "midi": 55,
          "name": "G3",
          "ticks": 17943,
          "time": 7.537428249023437,
          "velocity": 0.5984251968503937
        },
        {
          "duration": 0.4244471308593747,
          "durationTicks": 1014,
          "midi": 64,
          "name": "E4",
          "ticks": 18453,
          "time": 7.7509075751953125,
          "velocity": 0.7165354330708661
        },
        {
          "duration": 0.22603693359374954,
          "durationTicks": 540,
          "midi": 48,
          "name": "C3",
          "ticks": 18453,
          "time": 7.7509075751953125,
          "velocity": 0.6220472440944882
        },
        {
          "duration": 0.22394399902343753,
          "durationTicks": 535,
          "midi": 55,
          "name": "G3",
          "ticks": 18963,
          "time": 7.964386901367187,
          "velocity": 0.5984251968503937
        },
        {
          "duration": 0.19841019726562514,
          "durationTicks": 474,
          "midi": 65,
          "name": "F4",
          "ticks": 19468,
          "time": 8.17577329296875,
          "velocity": 0.7007874015748031
        },
        {
          "duration": 0.22394399902343842,
          "durationTicks": 535,
          "midi": 48,
          "name": "C3",
          "ticks": 19468,
          "time": 8.17577329296875,
          "velocity": 0.6062992125984252
        },
        {
          "duration": 1.505129681640625,
          "durationTicks": 3590,
          "midi": 62,
          "name": "D4",
          "ticks": 19973,
          "time": 8.387159684570312,
          "velocity": 0.6929133858267716
        },
        {
          "duration": 0.22478117285156252,
          "durationTicks": 537,
          "midi": 55,
          "name": "G3",
          "ticks": 19973,
          "time": 8.387159684570312,
          "velocity": 0.5984251968503937
        },
        {
          "duration": 0.23943171484375014,
          "durationTicks": 572,
          "midi": 46,
          "name": "A#2",
          "ticks": 20484,
          "time": 8.601057597656249,
          "velocity": 0.6377952755905512
        },
        {
          "duration": 0.22519975976562456,
          "durationTicks": 538,
          "midi": 53,
          "name": "F3",
          "ticks": 21026,
          "time": 8.827931705078125,
          "velocity": 0.5984251968503937
        },
        {
          "duration": 0.22394399902343842,
          "durationTicks": 535,
          "midi": 46,
          "name": "A#2",
          "ticks": 21534,
          "time": 9.040573857421874,
          "velocity": 0.6062992125984252
        },
        {
          "duration": 0.22603693359375043,
          "durationTicks": 540,
          "midi": 53,
          "name": "F3",
          "ticks": 22039,
          "time": 9.251960249023437,
          "velocity": 0.5984251968503937
        },
        {
          "duration": 0.22658913574218786,
          "durationTicks": 540,
          "midi": 46,
          "name": "A#2",
          "ticks": 22549,
          "time": 9.465439575195312,
          "velocity": 0.6220472440944882
        },
        {
          "duration": 0.22602719726562626,
          "durationTicks": 535,
          "midi": 53,
          "name": "F3",
          "ticks": 23059,
          "time": 9.679381132812498,
          "velocity": 0.5984251968503937
        },
        {
          "duration": 0.226882999023438,
          "durationTicks": 535,
          "midi": 46,
          "name": "A#2",
          "ticks": 23564,
          "time": 9.89271255859375,
          "velocity": 0.6062992125984252
        },
        {
          "duration": 0.2290440634765627,
          "durationTicks": 537,
          "midi": 53,
          "name": "F3",
          "ticks": 24069,
          "time": 10.106807793945313,
          "velocity": 0.5984251968503937
        },
        {
          "duration": 0.4390976728515632,
          "durationTicks": 1049,
          "midi": 67,
          "name": "G4",
          "ticks": 24580,
          "time": 10.32496859765625,
          "velocity": 0.7322834645669292
        },
        {
          "duration": 0.23943171484375014,
          "durationTicks": 572,
          "midi": 48,
          "name": "C3",
          "ticks": 24580,
          "time": 10.32496859765625,
          "velocity": 0.6377952755905512
        },
        {
          "duration": 0.22519975976562634,
          "durationTicks": 538,
          "midi": 55,
          "name": "G3",
          "ticks": 25122,
          "time": 10.551842705078124,
          "velocity": 0.5984251968503937
        },
        {
          "duration": 0.4244471308593756,
          "durationTicks": 1014,
          "midi": 65,
          "name": "F4",
          "ticks": 25630,
          "time": 10.764484857421875,
          "velocity": 0.7007874015748031
        },
        {
          "duration": 0.22394399902343665,
          "durationTicks": 535,
          "midi": 48,
          "name": "C3",
          "ticks": 25630,
          "time": 10.764484857421875,
          "velocity": 0.6062992125984252
        },
        {
          "duration": 0.22603693359374866,
          "durationTicks": 540,
          "midi": 55,
          "name": "G3",
          "ticks": 26135,
          "time": 10.975871249023438,
          "velocity": 0.5984251968503937
        },
        {
          "duration": 0.4244471308593738,
          "durationTicks": 1014,
          "midi": 67,
          "name": "G4",
          "ticks": 26645,
          "time": 11.189350575195313,
          "velocity": 0.7165354330708661
        },
        {
          "duration": 0.22603693359375043,
          "durationTicks": 540,
          "midi": 48,
          "name": "C3",
          "ticks": 26645,
          "time": 11.189350575195313,
          "velocity": 0.6220472440944882
        },
        {
          "duration": 0.22394399902343665,
          "durationTicks": 535,
          "midi": 55,
          "name": "G3",
          "ticks": 27155,
          "time": 11.402829901367188,
          "velocity": 0.5984251968503937
        },
        {
          "duration": 0.19841019726562514,
          "durationTicks": 474,
          "midi": 65,
          "name": "F4",
          "ticks": 27660,
          "time": 11.61421629296875,
          "velocity": 0.7007874015748031
        },
        {
          "duration": 0.22394399902343665,
          "durationTicks": 535,
          "midi": 48,
          "name": "C3",
          "ticks": 27660,
          "time": 11.61421629296875,
          "velocity": 0.6062992125984252
        },
        {
          "duration": 0.44035343359374934,
          "durationTicks": 1052,
          "midi": 70,
          "name": "A#4",
          "ticks": 28165,
          "time": 11.825602684570313,
          "velocity": 0.6929133858267716
        },
        {
          "duration": 0.22478117285156074,
          "durationTicks": 537,
          "midi": 55,
          "name": "G3",
          "ticks": 28165,
          "time": 11.825602684570313,
          "velocity": 0.5984251968503937
        },
        {
          "duration": 0.23943171484375014,
          "durationTicks": 572,
          "midi": 46,
          "name": "A#2",
          "ticks": 28676,
          "time": 12.03950059765625,
          "velocity": 0.6377952755905512
        },
        {
          "duration": 0.19966595800781306,
          "durationTicks": 477,
          "midi": 70,
          "name": "A#4",
          "ticks": 29218,
          "time": 12.266374705078125,
          "velocity": 0.6929133858267716
        },
        {
          "duration": 0.22519975976562634,
          "durationTicks": 538,
          "midi": 53,
          "name": "F3",
          "ticks": 29218,
          "time": 12.266374705078125,
          "velocity": 0.5984251968503937
        },
        {
          "duration": 0.4244471308593738,
          "durationTicks": 1014,
          "midi": 69,
          "name": "A4",
          "ticks": 29726,
          "time": 12.479016857421875,
          "velocity": 0.7007874015748031
        },
        {
          "duration": 0.22394399902343665,
          "durationTicks": 535,
          "midi": 46,
          "name": "A#2",
          "ticks": 29726,
          "time": 12.479016857421875,
          "velocity": 0.6062992125984252
        },
        {
          "duration": 0.22603693359375043,
          "durationTicks": 540,
          "midi": 53,
          "name": "F3",
          "ticks": 30231,
          "time": 12.690403249023436,
          "velocity": 0.5984251968503937
        },
        {
          "duration": 0.20050313183593715,
          "durationTicks": 479,
          "midi": 70,
          "name": "A#4",
          "ticks": 30741,
          "time": 12.903882575195313,
          "velocity": 0.7165354330708661
        },
        {
          "duration": 0.22603693359374866,
          "durationTicks": 540,
          "midi": 46,
          "name": "A#2",
          "ticks": 30741,
          "time": 12.903882575195313,
          "velocity": 0.6220472440944882
        },
        {
          "duration": 0.4223541962890618,
          "durationTicks": 1009,
          "midi": 69,
          "name": "A4",
          "ticks": 31251,
          "time": 13.117361901367188,
          "velocity": 0.6929133858267716
        },
        {
          "duration": 0.22394399902343665,
          "durationTicks": 535,
          "midi": 53,
          "name": "F3",
          "ticks": 31251,
          "time": 13.117361901367188,
          "velocity": 0.5984251968503937
        },
        {
          "duration": 0.22394399902343665,
          "durationTicks": 535,
          "midi": 46,
          "name": "A#2",
          "ticks": 31756,
          "time": 13.32874829296875,
          "velocity": 0.6062992125984252
        },
        {
          "duration": 0.199247371093751,
          "durationTicks": 476,
          "midi": 69,
          "name": "A4",
          "ticks": 32261,
          "time": 13.540134684570312,
          "velocity": 0.6929133858267716
        },
        {
          "duration": 0.2247811728515643,
          "durationTicks": 537,
          "midi": 53,
          "name": "F3",
          "ticks": 32261,
          "time": 13.540134684570312,
          "velocity": 0.5984251968503937
        },
        {
          "duration": 0.4390976728515614,
          "durationTicks": 1049,
          "midi": 67,
          "name": "G4",
          "ticks": 32772,
          "time": 13.75403259765625,
          "velocity": 0.7322834645669292
        },
        {
          "duration": 0.23943171484375014,
          "durationTicks": 572,
          "midi": 48,
          "name": "C3",
          "ticks": 32772,
          "time": 13.75403259765625,
          "velocity": 0.6377952755905512
        },
        {
          "duration": 0.22519975976562456,
          "durationTicks": 538,
          "midi": 55,
          "name": "G3",
          "ticks": 33314,
          "time": 13.980906705078125,
          "velocity": 0.5984251968503937
        },
        {
          "duration": 0.42444713085937735,
          "durationTicks": 1014,
          "midi": 65,
          "name": "F4",
          "ticks": 33822,
          "time": 14.193548857421874,
          "velocity": 0.7007874015748031
        },
        {
          "duration": 0.22394399902343842,
          "durationTicks": 535,
          "midi": 48,
          "name": "C3",
          "ticks": 33822,
          "time": 14.193548857421874,
          "velocity": 0.6062992125984252
        },
        {
          "duration": 0.22603693359374866,
          "durationTicks": 540,
          "midi": 55,
          "name": "G3",
          "ticks": 34327,
          "time": 14.404935249023438,
          "velocity": 0.5984251968503937
        },
        {
          "duration": 0.4244471308593738,
          "durationTicks": 1014,
          "midi": 67,
          "name": "G4",
          "ticks": 34837,
          "time": 14.618414575195313,
          "velocity": 0.7165354330708661
        },
        {
          "duration": 0.22603693359375043,
          "durationTicks": 540,
          "midi": 48,
          "name": "C3",
          "ticks": 34837,
          "time": 14.618414575195313,
          "velocity": 0.6220472440944882
        },
        {
          "duration": 0.22394399902343665,
          "durationTicks": 535,
          "midi": 55,
          "name": "G3",
          "ticks": 35347,
          "time": 14.831893901367188,
          "velocity": 0.5984251968503937
        },
        {
          "duration": 0.19841019726562692,
          "durationTicks": 474,
          "midi": 70,
          "name": "A#4",
          "ticks": 35852,
          "time": 15.043280292968749,
          "velocity": 0.7007874015748031
        },
        {
          "duration": 0.22394399902343842,
          "durationTicks": 535,
          "midi": 48,
          "name": "C3",
          "ticks": 35852,
          "time": 15.043280292968749,
          "velocity": 0.6062992125984252
        },
        {
          "duration": 1.5027270214843718,
          "durationTicks": 3590,
          "midi": 72,
          "name": "C5",
          "ticks": 36357,
          "time": 15.254666684570314,
          "velocity": 0.6929133858267716
        },
        {
          "duration": 0.22478117285156074,
          "durationTicks": 537,
          "midi": 55,
          "name": "G3",
          "ticks": 36357,
          "time": 15.254666684570314,
          "velocity": 0.5984251968503937
        },
        {
          "duration": 0.23943171484375014,
          "durationTicks": 572,
          "midi": 44,
          "name": "G#2",
          "ticks": 36868,
          "time": 15.46856459765625,
          "velocity": 0.6377952755905512
        },
        {
          "duration": 0.22519975976562456,
          "durationTicks": 538,
          "midi": 51,
          "name": "D#3",
          "ticks": 37410,
          "time": 15.695438705078125,
          "velocity": 0.5984251968503937
        },
        {
          "duration": 0.22394399902343665,
          "durationTicks": 535,
          "midi": 44,
          "name": "G#2",
          "ticks": 37918,
          "time": 15.908080857421876,
          "velocity": 0.6062992125984252
        },
        {
          "duration": 0.22603693359375043,
          "durationTicks": 540,
          "midi": 51,
          "name": "D#3",
          "ticks": 38423,
          "time": 16.119467249023437,
          "velocity": 0.5984251968503937
        },
        {
          "duration": 0.22603693359375043,
          "durationTicks": 540,
          "midi": 44,
          "name": "G#2",
          "ticks": 38933,
          "time": 16.33294657519531,
          "velocity": 0.6220472440944882
        },
        {
          "duration": 0.2239439990234402,
          "durationTicks": 535,
          "midi": 51,
          "name": "D#3",
          "ticks": 39443,
          "time": 16.546425901367186,
          "velocity": 0.5984251968503937
        },
        {
          "duration": 0.22394399902343665,
          "durationTicks": 535,
          "midi": 44,
          "name": "G#2",
          "ticks": 39948,
          "time": 16.75781229296875,
          "velocity": 0.6062992125984252
        },
        {
          "duration": 0.2247811728515643,
          "durationTicks": 537,
          "midi": 51,
          "name": "D#3",
          "ticks": 40453,
          "time": 16.969198684570312,
          "velocity": 0.5984251968503937
        },
        {
          "duration": 0.4390976728515632,
          "durationTicks": 1049,
          "midi": 67,
          "name": "G4",
          "ticks": 40964,
          "time": 17.183096597656252,
          "velocity": 0.7322834645669292
        },
        {
          "duration": 0.23943171484375014,
          "durationTicks": 572,
          "midi": 48,
          "name": "C3",
          "ticks": 40964,
          "time": 17.183096597656252,
          "velocity": 0.6377952755905512
        },
        {
          "duration": 0.22519975976562634,
          "durationTicks": 538,
          "midi": 55,
          "name": "G3",
          "ticks": 41506,
          "time": 17.409970705078127,
          "velocity": 0.5984251968503937
        },
        {
          "duration": 0.4244471308593738,
          "durationTicks": 1014,
          "midi": 65,
          "name": "F4",
          "ticks": 42014,
          "time": 17.622612857421878,
          "velocity": 0.7007874015748031
        },
        {
          "duration": 0.22394399902343665,
          "durationTicks": 535,
          "midi": 48,
          "name": "C3",
          "ticks": 42014,
          "time": 17.622612857421878,
          "velocity": 0.6062992125984252
        },
        {
          "duration": 0.22603693359375043,
          "durationTicks": 540,
          "midi": 55,
          "name": "G3",
          "ticks": 42519,
          "time": 17.83399924902344,
          "velocity": 0.5984251968503937
        },
        {
          "duration": 0.42444713085937735,
          "durationTicks": 1014,
          "midi": 67,
          "name": "G4",
          "ticks": 43029,
          "time": 18.047478575195314,
          "velocity": 0.7165354330708661
        },
        {
          "duration": 0.22603693359375043,
          "durationTicks": 540,
          "midi": 48,
          "name": "C3",
          "ticks": 43029,
          "time": 18.047478575195314,
          "velocity": 0.6220472440944882
        },
        {
          "duration": 0.2239439990234402,
          "durationTicks": 535,
          "midi": 55,
          "name": "G3",
          "ticks": 43539,
          "time": 18.26095790136719,
          "velocity": 0.5984251968503937
        },
        {
          "duration": 0.19841019726562337,
          "durationTicks": 474,
          "midi": 65,
          "name": "F4",
          "ticks": 44044,
          "time": 18.472344292968753,
          "velocity": 0.7007874015748031
        },
        {
          "duration": 0.22394399902343665,
          "durationTicks": 535,
          "midi": 48,
          "name": "C3",
          "ticks": 44044,
          "time": 18.472344292968753,
          "velocity": 0.6062992125984252
        },
        {
          "duration": 0.44035343359374934,
          "durationTicks": 1052,
          "midi": 70,
          "name": "A#4",
          "ticks": 44549,
          "time": 18.683730684570314,
          "velocity": 0.6929133858267716
        },
        {
          "duration": 0.2247811728515643,
          "durationTicks": 537,
          "midi": 55,
          "name": "G3",
          "ticks": 44549,
          "time": 18.683730684570314,
          "velocity": 0.5984251968503937
        },
        {
          "duration": 0.23943171484375014,
          "durationTicks": 572,
          "midi": 46,
          "name": "A#2",
          "ticks": 45060,
          "time": 18.89762859765625,
          "velocity": 0.6377952755905512
        },
        {
          "duration": 0.19966595800781306,
          "durationTicks": 477,
          "midi": 70,
          "name": "A#4",
          "ticks": 45602,
          "time": 19.124502705078125,
          "velocity": 0.6929133858267716
        },
        {
          "duration": 0.22519975976562634,
          "durationTicks": 538,
          "midi": 53,
          "name": "F3",
          "ticks": 45602,
          "time": 19.124502705078125,
          "velocity": 0.5984251968503937
        },
        {
          "duration": 0.42444713085937735,
          "durationTicks": 1014,
          "midi": 69,
          "name": "A4",
          "ticks": 46110,
          "time": 19.337144857421876,
          "velocity": 0.7007874015748031
        },
        {
          "duration": 0.2239439990234402,
          "durationTicks": 535,
          "midi": 46,
          "name": "A#2",
          "ticks": 46110,
          "time": 19.337144857421876,
          "velocity": 0.6062992125984252
        },
        {
          "duration": 0.22603693359375043,
          "durationTicks": 540,
          "midi": 53,
          "name": "F3",
          "ticks": 46615,
          "time": 19.54853124902344,
          "velocity": 0.5984251968503937
        },
        {
          "duration": 0.20088938574218673,
          "durationTicks": 479,
          "midi": 70,
          "name": "A#4",
          "ticks": 47125,
          "time": 19.762010575195315,
          "velocity": 0.7165354330708661
        },
        {
          "duration": 0.22658913574218786,
          "durationTicks": 540,
          "midi": 46,
          "name": "A#2",
          "ticks": 47125,
          "time": 19.762010575195315,
          "velocity": 0.6220472440944882
        },
        {
          "duration": 0.4270004023437508,
          "durationTicks": 1009,
          "midi": 69,
          "name": "A4",
          "ticks": 47635,
          "time": 19.975952132812505,
          "velocity": 0.6929133858267716
        },
        {
          "duration": 0.22602719726562626,
          "durationTicks": 535,
          "midi": 53,
          "name": "F3",
          "ticks": 47635,
          "time": 19.975952132812505,
          "velocity": 0.5984251968503937
        },
        {
          "duration": 0.22688299902344156,
          "durationTicks": 535,
          "midi": 46,
          "name": "A#2",
          "ticks": 48140,
          "time": 20.189283558593754,
          "velocity": 0.6062992125984252
        },
        {
          "duration": 0.20322723535156229,
          "durationTicks": 476,
          "midi": 69,
          "name": "A4",
          "ticks": 48645,
          "time": 20.40337879394532,
          "velocity": 0.6929133858267716
        },
        {
          "duration": 0.22904406347656447,
          "durationTicks": 537,
          "midi": 53,
          "name": "F3",
          "ticks": 48645,
          "time": 20.40337879394532,
          "velocity": 0.5984251968503937
        },
        {
          "duration": 0.43909767285155965,
          "durationTicks": 1049,
          "midi": 67,
          "name": "G4",
          "ticks": 49156,
          "time": 20.62153959765626,
          "velocity": 0.7322834645669292
        },
        {
          "duration": 0.2394317148437466,
          "durationTicks": 572,
          "midi": 48,
          "name": "C3",
          "ticks": 49156,
          "time": 20.62153959765626,
          "velocity": 0.6377952755905512
        },
        {
          "duration": 0.2251997597656228,
          "durationTicks": 538,
          "midi": 55,
          "name": "G3",
          "ticks": 49698,
          "time": 20.848413705078134,
          "velocity": 0.5984251968503937
        },
        {
          "duration": 0.42444713085937735,
          "durationTicks": 1014,
          "midi": 65,
          "name": "F4",
          "ticks": 50206,
          "time": 21.06105585742188,
          "velocity": 0.7007874015748031
        },
        {
          "duration": 0.2239439990234402,
          "durationTicks": 535,
          "midi": 48,
          "name": "C3",
          "ticks": 50206,
          "time": 21.06105585742188,
          "velocity": 0.6062992125984252
        },
        {
          "duration": 0.22603693359375043,
          "durationTicks": 540,
          "midi": 55,
          "name": "G3",
          "ticks": 50711,
          "time": 21.272442249023445,
          "velocity": 0.5984251968503937
        },
        {
          "duration": 0.4244471308593738,
          "durationTicks": 1014,
          "midi": 64,
          "name": "E4",
          "ticks": 51221,
          "time": 21.48592157519532,
          "velocity": 0.7165354330708661
        },
        {
          "duration": 0.22603693359375043,
          "durationTicks": 540,
          "midi": 48,
          "name": "C3",
          "ticks": 51221,
          "time": 21.48592157519532,
          "velocity": 0.6220472440944882
        },
        {
          "duration": 0.22394399902343665,
          "durationTicks": 535,
          "midi": 55,
          "name": "G3",
          "ticks": 51731,
          "time": 21.699400901367195,
          "velocity": 0.5984251968503937
        },
        {
          "duration": 0.19841019726562692,
          "durationTicks": 474,
          "midi": 65,
          "name": "F4",
          "ticks": 52236,
          "time": 21.910787292968756,
          "velocity": 0.7007874015748031
        },
        {
          "duration": 0.2239439990234402,
          "durationTicks": 535,
          "midi": 48,
          "name": "C3",
          "ticks": 52236,
          "time": 21.910787292968756,
          "velocity": 0.6062992125984252
        },
        {
          "duration": 1.5051296816406285,
          "durationTicks": 3590,
          "midi": 62,
          "name": "D4",
          "ticks": 52741,
          "time": 22.12217368457032,
          "velocity": 0.6929133858267716
        },
        {
          "duration": 0.22478117285156074,
          "durationTicks": 537,
          "midi": 55,
          "name": "G3",
          "ticks": 52741,
          "time": 22.12217368457032,
          "velocity": 0.5984251968503937
        },
        {
          "duration": 0.23943171484375014,
          "durationTicks": 572,
          "midi": 46,
          "name": "A#2",
          "ticks": 53252,
          "time": 22.336071597656257,
          "velocity": 0.6377952755905512
        },
        {
          "duration": 0.22519975976562634,
          "durationTicks": 538,
          "midi": 53,
          "name": "F3",
          "ticks": 53794,
          "time": 22.562945705078132,
          "velocity": 0.5984251968503937
        },
        {
          "duration": 0.22394399902343665,
          "durationTicks": 535,
          "midi": 46,
          "name": "A#2",
          "ticks": 54302,
          "time": 22.775587857421883,
          "velocity": 0.6062992125984252
        },
        {
          "duration": 0.22603693359375399,
          "durationTicks": 540,
          "midi": 53,
          "name": "F3",
          "ticks": 54807,
          "time": 22.986974249023444,
          "velocity": 0.5984251968503937
        },
        {
          "duration": 0.22658913574218786,
          "durationTicks": 540,
          "midi": 46,
          "name": "A#2",
          "ticks": 55317,
          "time": 23.200453575195322,
          "velocity": 0.6220472440944882
        },
        {
          "duration": 0.22602719726562626,
          "durationTicks": 535,
          "midi": 53,
          "name": "F3",
          "ticks": 55827,
          "time": 23.414395132812512,
          "velocity": 0.5984251968503937
        },
        {
          "duration": 0.22688299902344156,
          "durationTicks": 535,
          "midi": 46,
          "name": "A#2",
          "ticks": 56332,
          "time": 23.62772655859376,
          "velocity": 0.6062992125984252
        },
        {
          "duration": 0.22904406347656447,
          "durationTicks": 537,
          "midi": 53,
          "name": "F3",
          "ticks": 56837,
          "time": 23.841821793945325,
          "velocity": 0.5984251968503937
        },
        {
          "duration": 0.43909767285155965,
          "durationTicks": 1049,
          "midi": 67,
          "name": "G4",
          "ticks": 57348,
          "time": 24.059982597656266,
          "velocity": 0.7322834645669292
        },
        {
          "duration": 0.2394317148437466,
          "durationTicks": 572,
          "midi": 48,
          "name": "C3",
          "ticks": 57348,
          "time": 24.059982597656266,
          "velocity": 0.6377952755905512
        },
        {
          "duration": 0.2251997597656228,
          "durationTicks": 538,
          "midi": 55,
          "name": "G3",
          "ticks": 57890,
          "time": 24.28685670507814,
          "velocity": 0.5984251968503937
        },
        {
          "duration": 0.42444713085937735,
          "durationTicks": 1014,
          "midi": 65,
          "name": "F4",
          "ticks": 58398,
          "time": 24.499498857421887,
          "velocity": 0.7007874015748031
        },
        {
          "duration": 0.2239439990234402,
          "durationTicks": 535,
          "midi": 48,
          "name": "C3",
          "ticks": 58398,
          "time": 24.499498857421887,
          "velocity": 0.6062992125984252
        },
        {
          "duration": 0.22603693359375043,
          "durationTicks": 540,
          "midi": 55,
          "name": "G3",
          "ticks": 58903,
          "time": 24.710885249023452,
          "velocity": 0.5984251968503937
        },
        {
          "duration": 0.4244471308593738,
          "durationTicks": 1014,
          "midi": 67,
          "name": "G4",
          "ticks": 59413,
          "time": 24.924364575195327,
          "velocity": 0.7165354330708661
        },
        {
          "duration": 0.22603693359375043,
          "durationTicks": 540,
          "midi": 48,
          "name": "C3",
          "ticks": 59413,
          "time": 24.924364575195327,
          "velocity": 0.6220472440944882
        },
        {
          "duration": 0.22394399902343665,
          "durationTicks": 535,
          "midi": 55,
          "name": "G3",
          "ticks": 59923,
          "time": 25.1378439013672,
          "velocity": 0.5984251968503937
        },
        {
          "duration": 0.19841019726562692,
          "durationTicks": 474,
          "midi": 65,
          "name": "F4",
          "ticks": 60428,
          "time": 25.349230292968763,
          "velocity": 0.7007874015748031
        },
        {
          "duration": 0.2239439990234402,
          "durationTicks": 535,
          "midi": 48,
          "name": "C3",
          "ticks": 60428,
          "time": 25.349230292968763,
          "velocity": 0.6062992125984252
        },
        {
          "duration": 0.44035343359374934,
          "durationTicks": 1052,
          "midi": 70,
          "name": "A#4",
          "ticks": 60933,
          "time": 25.560616684570327,
          "velocity": 0.6929133858267716
        },
        {
          "duration": 0.22478117285156074,
          "durationTicks": 537,
          "midi": 55,
          "name": "G3",
          "ticks": 60933,
          "time": 25.560616684570327,
          "velocity": 0.5984251968503937
        },
        {
          "duration": 0.23943171484375014,
          "durationTicks": 572,
          "midi": 46,
          "name": "A#2",
          "ticks": 61444,
          "time": 25.774514597656264,
          "velocity": 0.6377952755905512
        },
        {
          "duration": 0.19966595800781306,
          "durationTicks": 477,
          "midi": 70,
          "name": "A#4",
          "ticks": 61986,
          "time": 26.00138870507814,
          "velocity": 0.6929133858267716
        },
        {
          "duration": 0.22519975976562634,
          "durationTicks": 538,
          "midi": 53,
          "name": "F3",
          "ticks": 61986,
          "time": 26.00138870507814,
          "velocity": 0.5984251968503937
        },
        {
          "duration": 0.4244471308593738,
          "durationTicks": 1014,
          "midi": 69,
          "name": "A4",
          "ticks": 62494,
          "time": 26.21403085742189,
          "velocity": 0.7007874015748031
        },
        {
          "duration": 0.22394399902343665,
          "durationTicks": 535,
          "midi": 46,
          "name": "A#2",
          "ticks": 62494,
          "time": 26.21403085742189,
          "velocity": 0.6062992125984252
        },
        {
          "duration": 0.22603693359375043,
          "durationTicks": 540,
          "midi": 53,
          "name": "F3",
          "ticks": 62999,
          "time": 26.42541724902345,
          "velocity": 0.5984251968503937
        },
        {
          "duration": 0.20050313183593715,
          "durationTicks": 479,
          "midi": 70,
          "name": "A#4",
          "ticks": 63509,
          "time": 26.638896575195325,
          "velocity": 0.7165354330708661
        },
        {
          "duration": 0.22603693359375043,
          "durationTicks": 540,
          "midi": 46,
          "name": "A#2",
          "ticks": 63509,
          "time": 26.638896575195325,
          "velocity": 0.6220472440944882
        },
        {
          "duration": 0.42235419628906357,
          "durationTicks": 1009,
          "midi": 69,
          "name": "A4",
          "ticks": 64019,
          "time": 26.8523759013672,
          "velocity": 0.6929133858267716
        },
        {
          "duration": 0.2239439990234402,
          "durationTicks": 535,
          "midi": 53,
          "name": "F3",
          "ticks": 64019,
          "time": 26.8523759013672,
          "velocity": 0.5984251968503937
        },
        {
          "duration": 0.22394399902343665,
          "durationTicks": 535,
          "midi": 46,
          "name": "A#2",
          "ticks": 64524,
          "time": 27.063762292968764,
          "velocity": 0.6062992125984252
        },
        {
          "duration": 0.199247371093751,
          "durationTicks": 476,
          "midi": 69,
          "name": "A4",
          "ticks": 65029,
          "time": 27.275148684570325,
          "velocity": 0.6929133858267716
        },
        {
          "duration": 0.2247811728515643,
          "durationTicks": 537,
          "midi": 53,
          "name": "F3",
          "ticks": 65029,
          "time": 27.275148684570325,
          "velocity": 0.5984251968503937
        },
        {
          "duration": 0.4390976728515632,
          "durationTicks": 1049,
          "midi": 67,
          "name": "G4",
          "ticks": 65540,
          "time": 27.489046597656262,
          "velocity": 0.7322834645669292
        },
        {
          "duration": 0.23943171484375014,
          "durationTicks": 572,
          "midi": 48,
          "name": "C3",
          "ticks": 65540,
          "time": 27.489046597656262,
          "velocity": 0.6377952755905512
        },
        {
          "duration": 0.2251997597656228,
          "durationTicks": 538,
          "midi": 55,
          "name": "G3",
          "ticks": 66082,
          "time": 27.71592070507814,
          "velocity": 0.5984251968503937
        },
        {
          "duration": 0.42444713085937735,
          "durationTicks": 1014,
          "midi": 65,
          "name": "F4",
          "ticks": 66590,
          "time": 27.928562857421888,
          "velocity": 0.7007874015748031
        },
        {
          "duration": 0.2239439990234402,
          "durationTicks": 535,
          "midi": 48,
          "name": "C3",
          "ticks": 66590,
          "time": 27.928562857421888,
          "velocity": 0.6062992125984252
        },
        {
          "duration": 0.22603693359374688,
          "durationTicks": 540,
          "midi": 55,
          "name": "G3",
          "ticks": 67095,
          "time": 28.139949249023452,
          "velocity": 0.5984251968503937
        },
        {
          "duration": 0.4244471308593738,
          "durationTicks": 1014,
          "midi": 67,
          "name": "G4",
          "ticks": 67605,
          "time": 28.353428575195327,
          "velocity": 0.7165354330708661
        },
        {
          "duration": 0.22603693359375043,
          "durationTicks": 540,
          "midi": 48,
          "name": "C3",
          "ticks": 67605,
          "time": 28.353428575195327,
          "velocity": 0.6220472440944882
        },
        {
          "duration": 0.22394399902343665,
          "durationTicks": 535,
          "midi": 55,
          "name": "G3",
          "ticks": 68115,
          "time": 28.566907901367202,
          "velocity": 0.5984251968503937
        },
        {
          "duration": 0.19841019726562692,
          "durationTicks": 474,
          "midi": 70,
          "name": "A#4",
          "ticks": 68620,
          "time": 28.778294292968763,
          "velocity": 0.7007874015748031
        },
        {
          "duration": 0.22394399902343665,
          "durationTicks": 535,
          "midi": 48,
          "name": "C3",
          "ticks": 68620,
          "time": 28.778294292968763,
          "velocity": 0.6062992125984252
        },
        {
          "duration": 1.5027270214843718,
          "durationTicks": 3590,
          "midi": 72,
          "name": "C5",
          "ticks": 69125,
          "time": 28.989680684570327,
          "velocity": 0.6929133858267716
        },
        {
          "duration": 0.22478117285156074,
          "durationTicks": 537,
          "midi": 55,
          "name": "G3",
          "ticks": 69125,
          "time": 28.989680684570327,
          "velocity": 0.5984251968503937
        },
        {
          "duration": 0.23943171484375014,
          "durationTicks": 572,
          "midi": 44,
          "name": "G#2",
          "ticks": 69636,
          "time": 29.203578597656264,
          "velocity": 0.6377952755905512
        },
        {
          "duration": 0.2251997597656228,
          "durationTicks": 538,
          "midi": 51,
          "name": "D#3",
          "ticks": 70178,
          "time": 29.43045270507814,
          "velocity": 0.5984251968503937
        },
        {
          "duration": 0.22394399902343665,
          "durationTicks": 535,
          "midi": 44,
          "name": "G#2",
          "ticks": 70686,
          "time": 29.64309485742189,
          "velocity": 0.6062992125984252
        },
        {
          "duration": 0.22603693359375043,
          "durationTicks": 540,
          "midi": 51,
          "name": "D#3",
          "ticks": 71191,
          "time": 29.85448124902345,
          "velocity": 0.5984251968503937
        },
        {
          "duration": 0.22603693359375043,
          "durationTicks": 540,
          "midi": 44,
          "name": "G#2",
          "ticks": 71701,
          "time": 30.067960575195325,
          "velocity": 0.6220472440944882
        },
        {
          "duration": 0.2239439990234402,
          "durationTicks": 535,
          "midi": 51,
          "name": "D#3",
          "ticks": 72211,
          "time": 30.2814399013672,
          "velocity": 0.5984251968503937
        },
        {
          "duration": 0.22394399902343665,
          "durationTicks": 535,
          "midi": 44,
          "name": "G#2",
          "ticks": 72716,
          "time": 30.492826292968765,
          "velocity": 0.6062992125984252
        },
        {
          "duration": 0.22478117285156074,
          "durationTicks": 537,
          "midi": 51,
          "name": "D#3",
          "ticks": 73221,
          "time": 30.704212684570326,
          "velocity": 0.5984251968503937
        }
      ],
      "endOfTrackTicks": 73758
    }
  ]
}
