<svg width="124" height="124" viewBox="0 0 124 124" fill="none" xmlns="http://www.w3.org/2000/svg">
<path d="M46.5 108.5C46.5 111.342 48.825 113.667 51.6666 113.667H72.3333C75.175 113.667 77.5 111.342 77.5 108.5V103.333H46.5V108.5ZM62 10.3333C42.0566 10.3333 25.8333 26.5566 25.8333 46.5C25.8333 58.7966 31.9816 69.595 41.3333 76.1566V87.8333C41.3333 90.675 43.6583 93 46.5 93H77.5C80.3416 93 82.6666 90.675 82.6666 87.8333V76.1566C92.0183 69.595 98.1667 58.7966 98.1667 46.5C98.1667 26.5566 81.9433 10.3333 62 10.3333ZM76.725 67.6833L72.3333 70.7833V82.6666H51.6666V70.7833L47.275 67.6833C40.3 62.8266 36.1666 54.9216 36.1666 46.5C36.1666 32.24 47.74 20.6666 62 20.6666C76.26 20.6666 87.8333 32.24 87.8333 46.5C87.8333 54.9216 83.7 62.8266 76.725 67.6833Z" fill="black"/>
</svg>
