<?xml version="1.0" standalone="no"?>
<!DOCTYPE svg PUBLIC "-//W3C//DTD SVG 20010904//EN"
 "http://www.w3.org/TR/2001/REC-SVG-20010904/DTD/svg10.dtd">
<svg version="1.0" xmlns="http://www.w3.org/2000/svg"
 width="260.000000pt" height="245.000000pt" viewBox="0 0 260.000000 245.000000"
 preserveAspectRatio="xMidYMid meet">

<g transform="translate(0.000000,245.000000) scale(0.100000,-0.100000)"
fill="#000000" stroke="none">
<path d="M995 1879 c-150 -31 -304 -151 -374 -292 -149 -304 -7 -652 313 -765
57 -21 90 -25 171 -25 112 -1 177 15 265 63 l54 30 241 -240 c259 -258 260
-259 326 -225 16 9 34 27 39 41 24 63 22 66 -230 319 l-240 241 34 64 c156
294 9 659 -310 771 -69 24 -214 33 -289 18z m220 -114 c84 -22 147 -60 210
-126 128 -134 156 -314 76 -485 -80 -172 -277 -276 -461 -244 -130 23 -262
117 -319 228 -171 336 132 721 494 627z"/>
<path d="M1090 1670 c-16 -31 1 -46 59 -53 122 -14 192 -89 225 -239 5 -21 12
-28 31 -28 33 0 38 25 20 95 -35 137 -129 218 -277 240 -41 6 -48 5 -58 -15z"/>
</g>
</svg>
