<?xml version="1.0" standalone="no"?>
<!DOCTYPE svg PUBLIC "-//W3C//DTD SVG 20010904//EN"
 "http://www.w3.org/TR/2001/REC-SVG-20010904/DTD/svg10.dtd">
<svg version="1.0" xmlns="http://www.w3.org/2000/svg"
 width="612.000000pt" height="490.000000pt" viewBox="0 0 612.000000 490.000000"
 preserveAspectRatio="xMidYMid meet">

<g transform="translate(0.000000,490.000000) scale(0.100000,-0.100000)"
fill="#FFFFFF" stroke="none">
<path d="M3032 4523 c-7 -3 -30 -30 -51 -61 -150 -225 -186 -281 -253 -392
-41 -69 -129 -224 -196 -345 -66 -121 -146 -265 -176 -320 -62 -112 -69 -149
-33 -190 20 -24 138 -75 172 -75 15 0 47 56 71 124 8 22 19 88 25 146 18 187
54 295 134 411 42 60 41 58 -10 -59 -42 -96 -69 -222 -83 -397 -11 -126 -33
-205 -77 -269 -47 -69 -87 -382 -54 -422 32 -39 227 -115 379 -148 44 -10 55
-15 34 -15 -58 -2 -205 29 -280 58 -48 19 -74 25 -74 17 0 -7 5 -17 12 -24 8
-8 5 -20 -15 -49 -41 -60 -42 -82 -9 -144 16 -31 31 -78 34 -107 3 -33 15 -67
36 -99 18 -27 34 -65 38 -84 3 -19 15 -59 27 -89 40 -103 16 -231 -60 -320
-37 -42 -37 -42 -91 -37 -116 12 -200 100 -209 219 -13 158 77 257 166 183 16
-15 36 -42 43 -60 18 -52 31 -42 26 20 -12 144 -165 205 -276 110 -61 -53 -94
-130 -100 -236 -7 -132 36 -235 131 -313 l45 -37 76 29 c42 17 76 28 76 26 0
-7 -145 -77 -200 -96 -127 -44 -272 -53 -348 -23 -52 21 -99 73 -108 121 -19
104 17 211 114 332 32 38 96 119 144 178 49 60 105 143 125 184 35 69 38 81
38 160 -1 72 -5 93 -28 136 -35 68 -80 112 -147 143 -50 23 -66 26 -170 25
-96 -1 -128 -5 -195 -27 -176 -59 -315 -164 -376 -283 -31 -61 -34 -76 -34
-150 0 -97 15 -125 86 -162 130 -68 272 63 219 202 -15 40 -30 31 -30 -20 0
-81 -77 -131 -138 -88 -17 11 -22 25 -22 56 0 115 147 267 303 313 109 32 254
10 301 -46 73 -86 -5 -236 -269 -519 -129 -138 -161 -181 -193 -256 -85 -203
-14 -426 165 -522 101 -53 163 -66 313 -66 106 0 154 5 224 22 114 29 224 77
317 138 41 27 80 53 88 58 31 19 -31 -53 -106 -124 -127 -122 -244 -189 -397
-229 -263 -69 -545 -9 -782 167 -77 57 -170 152 -219 225 -47 68 -104 193
-126 277 -21 75 -23 107 -23 270 1 157 4 197 22 264 59 213 178 368 387 502
34 22 137 79 231 127 204 106 259 150 308 249 61 121 46 231 -42 310 -107 96
-255 128 -430 92 -81 -16 -183 -60 -190 -81 -6 -20 43 -33 121 -33 131 0 271
-42 330 -98 117 -110 57 -233 -161 -332 -523 -236 -790 -605 -769 -1065 11
-241 75 -434 210 -635 64 -95 200 -236 300 -311 105 -79 278 -163 402 -195
136 -35 308 -37 440 -5 188 45 398 177 543 340 86 96 87 83 4 -32 -253 -352
-669 -506 -1140 -422 -135 23 -227 53 -412 133 -306 132 -452 171 -586 159
-79 -8 -138 -33 -194 -83 -69 -63 -95 -142 -69 -211 14 -38 57 -83 96 -99 51
-22 140 -17 198 10 88 41 102 83 17 53 -87 -32 -167 -14 -197 43 -31 59 11
133 82 146 55 10 161 -3 238 -29 71 -24 265 -120 450 -222 199 -109 321 -147
538 -166 342 -29 727 65 1002 246 93 62 277 230 301 276 8 17 14 58 14 101 1
57 3 69 11 55 16 -28 23 -127 11 -169 -10 -37 -10 -37 57 -102 173 -171 392
-291 647 -356 155 -40 257 -53 424 -53 304 -1 428 36 791 235 254 140 384 188
507 188 76 0 115 -19 138 -68 46 -98 -68 -172 -195 -126 -56 20 -73 14 -47
-15 58 -64 213 -80 288 -31 132 88 86 273 -87 352 -42 19 -66 23 -155 22 -130
0 -215 -22 -417 -105 -82 -34 -188 -78 -238 -99 -97 -40 -207 -71 -325 -92
-104 -18 -365 -15 -457 6 -230 51 -413 152 -563 312 -58 62 -160 201 -160 218
0 4 26 -24 58 -61 146 -169 347 -299 541 -350 138 -36 315 -36 456 1 124 32
297 116 402 195 100 75 236 216 300 311 135 201 199 394 210 635 12 280 -78
522 -271 723 -137 143 -240 215 -476 332 -189 95 -240 142 -240 225 0 45 20
85 61 119 74 62 144 83 317 96 63 4 119 13 125 19 18 18 -25 47 -118 77 -190
62 -377 34 -495 -73 -56 -50 -80 -102 -80 -179 0 -50 6 -74 35 -132 51 -100
102 -142 306 -247 95 -50 212 -116 260 -148 214 -140 333 -318 375 -559 20
-113 14 -349 -11 -443 -102 -386 -424 -661 -826 -707 -182 -20 -369 21 -531
119 -81 48 -229 178 -271 237 l-22 31 54 -38 c274 -196 654 -252 891 -132 187
95 262 316 180 526 -29 72 -50 100 -195 259 -214 234 -295 356 -295 447 0 90
91 140 240 131 143 -8 293 -103 358 -226 19 -36 32 -75 32 -96 0 -75 -76 -102
-131 -47 -28 28 -34 48 -29 99 2 30 -18 28 -30 -4 -53 -139 89 -270 219 -202
71 37 86 65 86 161 0 73 -4 89 -34 150 -107 213 -471 369 -702 301 -102 -30
-174 -105 -206 -213 -34 -117 8 -243 132 -397 35 -43 100 -124 145 -179 44
-55 92 -124 107 -154 27 -59 40 -147 29 -205 -9 -48 -56 -100 -108 -121 -59
-23 -182 -21 -283 5 -70 17 -265 101 -265 114 0 2 33 -9 73 -24 71 -28 72 -28
102 -10 46 28 111 112 134 174 41 109 22 264 -43 349 -109 142 -300 102 -314
-68 -5 -62 8 -72 26 -20 7 18 27 45 43 60 88 73 177 -24 167 -181 -7 -116 -92
-207 -206 -221 -51 -6 -53 -5 -91 35 -78 81 -105 217 -64 322 12 30 24 70 27
89 4 19 20 57 38 84 21 32 33 66 36 99 3 29 18 76 34 107 33 62 32 84 -8 143
-21 29 -24 40 -15 57 6 11 11 22 11 24 0 3 -33 -8 -74 -24 -74 -29 -222 -60
-280 -58 -17 0 13 11 69 24 148 34 312 101 344 139 33 40 -9 361 -55 421 -37
50 -63 137 -74 259 -23 237 -36 295 -104 461 l-17 40 22 -25 c33 -38 97 -179
113 -251 8 -35 20 -112 26 -171 6 -59 17 -126 25 -149 21 -57 57 -119 70 -119
32 0 139 45 165 70 45 42 40 76 -26 195 -30 55 -106 192 -169 306 -173 314
-218 389 -350 590 -139 210 -168 240 -213 222z m-333 -2127 c24 -21 65 -48 92
-60 l49 -21 -20 -32 c-10 -18 -30 -39 -44 -48 -24 -16 -28 -16 -63 2 -45 22
-63 53 -63 113 0 25 -7 56 -15 70 -8 14 -14 29 -15 34 0 10 8 3 79 -58z m787
25 c-9 -16 -16 -49 -16 -73 0 -57 -18 -89 -62 -112 -34 -19 -37 -19 -62 -2
-15 9 -36 31 -46 49 l-20 32 48 21 c26 12 74 45 107 72 33 28 61 49 63 47 2
-2 -4 -17 -12 -34z"/>
</g>
</svg>
