<svg width="123" height="122" viewBox="0 0 123 122" fill="none" xmlns="http://www.w3.org/2000/svg">
<path d="M93.4998 29.0257C91.5173 27.0432 88.3148 27.0432 86.3323 29.0257L61.4748 53.8324L36.6173 28.9749C34.6348 26.9924 31.4323 26.9924 29.4498 28.9749C27.4673 30.9574 27.4673 34.1599 29.4498 36.1424L54.3073 60.9999L29.4498 85.8573C27.4673 87.8398 27.4673 91.0423 29.4498 93.0248C31.4323 95.0073 34.6348 95.0073 36.6173 93.0248L61.4748 68.1674L86.3323 93.0248C88.3148 95.0073 91.5173 95.0073 93.4998 93.0248C95.4823 91.0423 95.4823 87.8398 93.4998 85.8573L68.6423 60.9999L93.4998 36.1424C95.4314 34.2107 95.4314 30.9574 93.4998 29.0257Z" fill="black"/>
</svg>
